<mxfile host="www.draw.io" modified="2020-01-03T07:21:49.895Z" agent="Mozilla/5.0 (Macintosh; Intel Mac OS X 10_15_2) AppleWebKit/537.36 (KHTML, like Gecko) Chrome/79.0.3945.88 Safari/537.36" etag="2QhCdxoR3tniImomqFwe" version="12.4.8" type="github">
  <diagram id="6a731a19-8d31-9384-78a2-239565b7b9f0" name="Page-1">
    <mxGraphModel dx="3002" dy="1009" grid="1" gridSize="10" guides="1" tooltips="1" connect="1" arrows="1" fold="1" page="1" pageScale="1" pageWidth="1169" pageHeight="827" background="#ffffff" math="0" shadow="0">
      <root>
        <mxCell id="0"/>
        <mxCell id="1" parent="0"/>
        <mxCell id="2" value="start" style="shape=mxgraph.flowchart.terminator;strokeWidth=2;gradientColor=none;gradientDirection=north;fontStyle=0;html=1;" parent="1" vertex="1">
          <mxGeometry x="100" y="50" width="120" height="30" as="geometry"/>
        </mxCell>
        <mxCell id="SzS7_TGq6cOfRYab2Gv5-61" value="" style="edgeStyle=orthogonalEdgeStyle;rounded=0;orthogonalLoop=1;jettySize=auto;html=1;entryX=0.5;entryY=0;entryDx=0;entryDy=0;entryPerimeter=0;" edge="1" parent="1" source="3" target="6">
          <mxGeometry relative="1" as="geometry">
            <mxPoint x="320" y="270" as="targetPoint"/>
          </mxGeometry>
        </mxCell>
        <mxCell id="3" value="Create TaxFreeForm" style="shape=mxgraph.flowchart.data;strokeWidth=2;gradientColor=none;gradientDirection=north;fontStyle=0;html=1;" parent="1" vertex="1">
          <mxGeometry x="80.5" y="150" width="159" height="80" as="geometry"/>
        </mxCell>
        <mxCell id="SzS7_TGq6cOfRYab2Gv5-90" value="" style="edgeStyle=orthogonalEdgeStyle;rounded=0;orthogonalLoop=1;jettySize=auto;html=1;entryX=0.5;entryY=0;entryDx=0;entryDy=0;entryPerimeter=0;" edge="1" parent="1" target="SzS7_TGq6cOfRYab2Gv5-91">
          <mxGeometry relative="1" as="geometry">
            <mxPoint x="566" y="335" as="sourcePoint"/>
            <mxPoint x="566" y="373" as="targetPoint"/>
          </mxGeometry>
        </mxCell>
        <mxCell id="SzS7_TGq6cOfRYab2Gv5-76" value="TaxFreeForm&lt;br&gt;&lt;font color=&quot;#007fff&quot;&gt;status: actived&lt;br&gt;&lt;/font&gt;&lt;span style=&quot;color: rgb(0 , 204 , 102) ; font-size: 10px&quot;&gt;statusV2: &lt;font face=&quot;menlo&quot;&gt;&lt;span style=&quot;background-color: rgb(255 , 255 , 255)&quot;&gt;&lt;b&gt;&lt;i&gt;blockedReUpload&lt;br&gt;&lt;/i&gt;&lt;/b&gt;&lt;/span&gt;&lt;/font&gt;&lt;/span&gt;&lt;span style=&quot;font-family: &amp;#34;menlo&amp;#34; ; font-size: 10px ; background-color: rgb(255 , 255 , 255)&quot;&gt;FormOnlineStatus:online&lt;/span&gt;&lt;font color=&quot;#007fff&quot;&gt;&lt;br&gt;&lt;/font&gt;" style="shape=mxgraph.flowchart.data;strokeWidth=2;gradientColor=none;gradientDirection=north;fontStyle=0;html=1;" vertex="1" parent="1">
          <mxGeometry x="472.64" y="650" width="186.75" height="90" as="geometry"/>
        </mxCell>
        <mxCell id="SzS7_TGq6cOfRYab2Gv5-113" value="" style="edgeStyle=orthogonalEdgeStyle;rounded=0;orthogonalLoop=1;jettySize=auto;html=1;" edge="1" parent="1" source="6" target="SzS7_TGq6cOfRYab2Gv5-105">
          <mxGeometry relative="1" as="geometry"/>
        </mxCell>
        <mxCell id="SzS7_TGq6cOfRYab2Gv5-115" value="" style="edgeStyle=orthogonalEdgeStyle;rounded=0;orthogonalLoop=1;jettySize=auto;html=1;entryX=0.623;entryY=0;entryDx=0;entryDy=0;entryPerimeter=0;" edge="1" parent="1" source="6" target="5">
          <mxGeometry relative="1" as="geometry">
            <mxPoint x="160" y="451.5" as="targetPoint"/>
          </mxGeometry>
        </mxCell>
        <mxCell id="SzS7_TGq6cOfRYab2Gv5-120" value="Spain" style="edgeStyle=orthogonalEdgeStyle;rounded=0;orthogonalLoop=1;jettySize=auto;html=1;entryX=0.5;entryY=0;entryDx=0;entryDy=0;entryPerimeter=0;" edge="1" parent="1" target="SzS7_TGq6cOfRYab2Gv5-121">
          <mxGeometry relative="1" as="geometry">
            <mxPoint x="-60" y="530" as="targetPoint"/>
            <mxPoint x="160" y="370" as="sourcePoint"/>
            <Array as="points">
              <mxPoint x="160" y="400"/>
              <mxPoint x="-79" y="400"/>
            </Array>
          </mxGeometry>
        </mxCell>
        <mxCell id="SzS7_TGq6cOfRYab2Gv5-118" style="edgeStyle=orthogonalEdgeStyle;rounded=0;orthogonalLoop=1;jettySize=auto;html=1;entryX=0.095;entryY=0.5;entryDx=0;entryDy=0;entryPerimeter=0;" edge="1" parent="1" source="SzS7_TGq6cOfRYab2Gv5-105" target="SzS7_TGq6cOfRYab2Gv5-66">
          <mxGeometry relative="1" as="geometry"/>
        </mxCell>
        <mxCell id="SzS7_TGq6cOfRYab2Gv5-86" value="" style="edgeStyle=orthogonalEdgeStyle;rounded=0;orthogonalLoop=1;jettySize=auto;html=1;entryX=0.552;entryY=-0.044;entryDx=0;entryDy=0;entryPerimeter=0;" edge="1" parent="1" source="SzS7_TGq6cOfRYab2Gv5-105" target="SzS7_TGq6cOfRYab2Gv5-87">
          <mxGeometry relative="1" as="geometry">
            <mxPoint x="265" y="430" as="sourcePoint"/>
            <mxPoint x="185" y="430" as="targetPoint"/>
          </mxGeometry>
        </mxCell>
        <mxCell id="7" style="fontStyle=1;strokeColor=#003366;strokeWidth=1;html=1;" parent="1" source="2" target="3" edge="1">
          <mxGeometry relative="1" as="geometry"/>
        </mxCell>
        <mxCell id="18" value="外部流程" style="shape=mxgraph.flowchart.predefined_process;strokeWidth=2;gradientColor=none;gradientDirection=north;fontStyle=0;html=1;" parent="1" vertex="1">
          <mxGeometry x="835" y="680" width="190" height="90" as="geometry"/>
        </mxCell>
        <mxCell id="20" value="审核" style="shape=mxgraph.flowchart.manual_input;strokeWidth=2;gradientColor=none;gradientDirection=north;fontStyle=0;html=1;" parent="1" vertex="1">
          <mxGeometry x="760" y="930" width="158" height="80" as="geometry"/>
        </mxCell>
        <mxCell id="22" value="create Gantt&#xa;diagram" style="shape=mxgraph.flowchart.document;strokeWidth=2;gradientColor=none;gradientDirection=north;fontStyle=0;html=1;" parent="1" vertex="1">
          <mxGeometry x="240.5" y="920" width="159" height="90" as="geometry"/>
        </mxCell>
        <mxCell id="24" value="late&#xa;project&#xa;changes?" style="shape=mxgraph.flowchart.decision;strokeWidth=2;gradientColor=none;gradientDirection=north;fontStyle=0;html=1;" parent="1" vertex="1">
          <mxGeometry x="261.5" y="1080" width="119" height="78.5" as="geometry"/>
        </mxCell>
        <mxCell id="25" value="" style="edgeStyle=elbowEdgeStyle;elbow=horizontal;exitX=0.5;exitY=0.9;exitPerimeter=0;fontStyle=1;strokeColor=#003366;strokeWidth=1;html=1;" parent="1" source="22" target="24" edge="1">
          <mxGeometry width="100" height="100" as="geometry">
            <mxPoint y="100" as="sourcePoint"/>
            <mxPoint x="100" as="targetPoint"/>
          </mxGeometry>
        </mxCell>
        <mxCell id="27" value="yes" style="text;fontStyle=0;html=1;strokeColor=none;gradientColor=none;fillColor=none;strokeWidth=2;" parent="1" vertex="1">
          <mxGeometry x="280" y="1158.5" width="40" height="26" as="geometry"/>
        </mxCell>
        <mxCell id="28" value="investor&#xa;disapproves&#xa; investment?" style="shape=mxgraph.flowchart.decision;strokeWidth=2;gradientColor=none;gradientDirection=north;fontStyle=0;html=1;" parent="1" vertex="1">
          <mxGeometry x="255" y="1210" width="130" height="100" as="geometry"/>
        </mxCell>
        <mxCell id="29" value="agreement?" style="shape=mxgraph.flowchart.decision;strokeWidth=2;gradientColor=none;gradientDirection=north;fontStyle=0;html=1;" parent="1" vertex="1">
          <mxGeometry x="510" y="1210" width="130" height="100" as="geometry"/>
        </mxCell>
        <mxCell id="30" value="" style="edgeStyle=elbowEdgeStyle;elbow=horizontal;exitX=0.5;exitY=1;exitPerimeter=0;fontStyle=1;strokeColor=#003366;strokeWidth=1;html=1;" parent="1" source="24" target="28" edge="1">
          <mxGeometry width="100" height="100" as="geometry">
            <mxPoint y="100" as="sourcePoint"/>
            <mxPoint x="100" as="targetPoint"/>
          </mxGeometry>
        </mxCell>
        <mxCell id="31" value="" style="edgeStyle=elbowEdgeStyle;elbow=horizontal;exitX=1;exitY=0.5;exitPerimeter=0;entryX=0;entryY=0.5;entryPerimeter=0;fontStyle=1;strokeColor=#003366;strokeWidth=1;html=1;" parent="1" source="28" target="29" edge="1">
          <mxGeometry width="100" height="100" as="geometry">
            <mxPoint y="100" as="sourcePoint"/>
            <mxPoint x="100" as="targetPoint"/>
          </mxGeometry>
        </mxCell>
        <mxCell id="32" value="terminate&#xa;contract&#xa;" style="shape=mxgraph.flowchart.merge_or_storage;strokeWidth=2;gradientColor=none;gradientDirection=north;fontStyle=0;html=1;" parent="1" vertex="1">
          <mxGeometry x="760" y="1300" width="130" height="80.5" as="geometry"/>
        </mxCell>
        <mxCell id="33" value="" style="edgeStyle=elbowEdgeStyle;elbow=vertical;exitX=1;exitY=0.5;exitPerimeter=0;entryX=0.5;entryY=0;entryPerimeter=0;fontStyle=1;strokeColor=#003366;strokeWidth=1;html=1;" parent="1" source="29" target="32" edge="1">
          <mxGeometry width="100" height="100" as="geometry">
            <mxPoint y="100" as="sourcePoint"/>
            <mxPoint x="100" as="targetPoint"/>
            <Array as="points">
              <mxPoint x="740" y="1260"/>
            </Array>
          </mxGeometry>
        </mxCell>
        <mxCell id="34" value="create&#xa;status&#xa;report" style="shape=mxgraph.flowchart.data;strokeWidth=2;gradientColor=none;gradientDirection=north;fontStyle=0;html=1;" parent="1" vertex="1">
          <mxGeometry x="240.5" y="1490" width="159" height="80" as="geometry"/>
        </mxCell>
        <mxCell id="35" value="" style="edgeStyle=elbowEdgeStyle;elbow=vertical;exitX=0.5;exitY=1;exitPerimeter=0;fontColor=#001933;fontStyle=1;strokeColor=#003366;strokeWidth=1;html=1;" parent="1" source="28" target="34" edge="1">
          <mxGeometry width="100" height="100" as="geometry">
            <mxPoint y="100" as="sourcePoint"/>
            <mxPoint x="100" as="targetPoint"/>
          </mxGeometry>
        </mxCell>
        <mxCell id="36" value="" style="edgeStyle=elbowEdgeStyle;elbow=vertical;exitX=0.5;exitY=1;exitPerimeter=0;entryX=0.5;entryY=0;entryPerimeter=0;fontStyle=1;strokeColor=#003366;strokeWidth=1;html=1;" parent="1" source="29" target="34" edge="1">
          <mxGeometry width="100" height="100" as="geometry">
            <mxPoint y="100" as="sourcePoint"/>
            <mxPoint x="100" as="targetPoint"/>
          </mxGeometry>
        </mxCell>
        <mxCell id="37" value="project&#xa;complete?" style="shape=mxgraph.flowchart.decision;strokeWidth=2;gradientColor=none;gradientDirection=north;fontStyle=0;html=1;" parent="1" vertex="1">
          <mxGeometry x="271" y="1621.5" width="98" height="57" as="geometry"/>
        </mxCell>
        <mxCell id="38" value="create&#xa;final&#xa;report" style="shape=mxgraph.flowchart.data;strokeWidth=2;gradientColor=none;gradientDirection=north;fontStyle=0;html=1;" parent="1" vertex="1">
          <mxGeometry x="240.5" y="1730" width="159" height="80" as="geometry"/>
        </mxCell>
        <mxCell id="39" value="issue&#xa;bill of works" style="shape=mxgraph.flowchart.predefined_process;strokeWidth=2;gradientColor=none;gradientDirection=north;fontStyle=0;html=1;" parent="1" vertex="1">
          <mxGeometry x="560" y="1725" width="190" height="90" as="geometry"/>
        </mxCell>
        <mxCell id="40" value="end" style="shape=mxgraph.flowchart.terminator;strokeWidth=2;gradientColor=none;gradientDirection=north;fontStyle=0;html=1;" parent="1" vertex="1">
          <mxGeometry x="260" y="1910" width="120" height="30" as="geometry"/>
        </mxCell>
        <mxCell id="41" value="" style="edgeStyle=elbowEdgeStyle;elbow=vertical;exitX=0.5;exitY=1;exitPerimeter=0;entryX=0.5;entryY=0;entryPerimeter=0;fontStyle=1;strokeColor=#003366;strokeWidth=1;html=1;" parent="1" source="34" target="37" edge="1">
          <mxGeometry width="100" height="100" as="geometry">
            <mxPoint y="100" as="sourcePoint"/>
            <mxPoint x="100" as="targetPoint"/>
          </mxGeometry>
        </mxCell>
        <mxCell id="42" value="" style="edgeStyle=elbowEdgeStyle;elbow=vertical;exitX=0.5;exitY=1;exitPerimeter=0;entryX=0.5;entryY=0;entryPerimeter=0;fontStyle=1;strokeColor=#003366;strokeWidth=1;html=1;" parent="1" source="37" target="38" edge="1">
          <mxGeometry width="100" height="100" as="geometry">
            <mxPoint y="100" as="sourcePoint"/>
            <mxPoint x="100" as="targetPoint"/>
          </mxGeometry>
        </mxCell>
        <mxCell id="43" value="" style="edgeStyle=elbowEdgeStyle;elbow=vertical;exitX=0.5;exitY=1;exitPerimeter=0;entryX=0.5;entryY=0;entryPerimeter=0;fontStyle=1;strokeColor=#003366;strokeWidth=1;html=1;" parent="1" source="38" target="40" edge="1">
          <mxGeometry width="100" height="100" as="geometry">
            <mxPoint y="100" as="sourcePoint"/>
            <mxPoint x="100" as="targetPoint"/>
          </mxGeometry>
        </mxCell>
        <mxCell id="44" value="" style="edgeStyle=elbowEdgeStyle;elbow=vertical;exitX=0.905;exitY=0.5;exitPerimeter=0;entryX=0;entryY=0.5;entryPerimeter=0;fontStyle=1;strokeColor=#003366;strokeWidth=1;html=1;" parent="1" source="38" target="39" edge="1">
          <mxGeometry width="100" height="100" as="geometry">
            <mxPoint y="100" as="sourcePoint"/>
            <mxPoint x="100" as="targetPoint"/>
          </mxGeometry>
        </mxCell>
        <mxCell id="45" value="" style="edgeStyle=elbowEdgeStyle;elbow=horizontal;exitX=1;exitY=0.5;exitPerimeter=0;entryX=0.905;entryY=0.5;entryPerimeter=0;fontStyle=1;strokeColor=#003366;strokeWidth=1;html=1;" parent="1" source="24" target="34" edge="1">
          <mxGeometry width="100" height="100" as="geometry">
            <mxPoint y="100" as="sourcePoint"/>
            <mxPoint x="100" as="targetPoint"/>
            <Array as="points">
              <mxPoint x="950" y="1320"/>
            </Array>
          </mxGeometry>
        </mxCell>
        <mxCell id="46" value="no" style="text;fontStyle=0;html=1;strokeColor=none;gradientColor=none;fillColor=none;strokeWidth=2;" parent="1" vertex="1">
          <mxGeometry x="380.5" y="1093.25" width="40" height="26" as="geometry"/>
        </mxCell>
        <mxCell id="47" value="yes" style="text;fontColor=#001933;fontStyle=0;html=1;strokeColor=none;gradientColor=none;fillColor=none;strokeWidth=2;" parent="1" vertex="1">
          <mxGeometry x="385" y="1234" width="40" height="26" as="geometry"/>
        </mxCell>
        <mxCell id="48" value="no" style="text;fontColor=#001933;fontStyle=0;html=1;strokeColor=none;gradientColor=none;fillColor=none;strokeWidth=2;align=center;" parent="1" vertex="1">
          <mxGeometry x="320" y="1310" width="40" height="26" as="geometry"/>
        </mxCell>
        <mxCell id="49" value="yes" style="text;fontColor=#001933;fontStyle=0;html=1;strokeColor=none;gradientColor=none;fillColor=none;strokeWidth=2;align=center;" parent="1" vertex="1">
          <mxGeometry x="575" y="1310" width="40" height="26" as="geometry"/>
        </mxCell>
        <mxCell id="50" value="no" style="text;fontColor=#001933;fontStyle=0;html=1;strokeColor=none;gradientColor=none;fillColor=none;strokeWidth=2;" parent="1" vertex="1">
          <mxGeometry x="640" y="1234" width="40" height="26" as="geometry"/>
        </mxCell>
        <mxCell id="51" value="纸质单" style="shape=mxgraph.flowchart.paper_tape;strokeWidth=2;gradientColor=none;gradientDirection=north;fontStyle=0;html=1;" parent="1" vertex="1">
          <mxGeometry x="855" y="820" width="150" height="81" as="geometry"/>
        </mxCell>
        <mxCell id="53" value="yes" style="text;fontStyle=0;html=1;strokeColor=none;gradientColor=none;fillColor=none;strokeWidth=2;align=center;" parent="1" vertex="1">
          <mxGeometry x="321" y="1680" width="40" height="26" as="geometry"/>
        </mxCell>
        <mxCell id="55" value="no" style="text;fontStyle=0;html=1;strokeColor=none;gradientColor=none;fillColor=none;strokeWidth=2;" parent="1" vertex="1">
          <mxGeometry x="235" y="1624" width="40" height="26" as="geometry"/>
        </mxCell>
        <mxCell id="SzS7_TGq6cOfRYab2Gv5-57" value="&lt;font style=&quot;font-size: 26px&quot; face=&quot;Courier New&quot;&gt;TaxFreeForm LifeCycle&lt;/font&gt;" style="text;html=1;align=center;verticalAlign=middle;resizable=0;points=[];autosize=1;" vertex="1" parent="1">
          <mxGeometry x="470" y="30" width="340" height="20" as="geometry"/>
        </mxCell>
        <mxCell id="SzS7_TGq6cOfRYab2Gv5-75" value="final project" style="shape=mxgraph.flowchart.document;strokeWidth=2;gradientColor=none;gradientDirection=north;fontStyle=0;html=1;" vertex="1" parent="1">
          <mxGeometry x="695" y="840" width="140" height="70" as="geometry"/>
        </mxCell>
        <mxCell id="SzS7_TGq6cOfRYab2Gv5-125" style="edgeStyle=orthogonalEdgeStyle;rounded=0;orthogonalLoop=1;jettySize=auto;html=1;entryX=0;entryY=0.5;entryDx=0;entryDy=0;entryPerimeter=0;exitX=0.905;exitY=0.5;exitDx=0;exitDy=0;exitPerimeter=0;" edge="1" parent="1" source="SzS7_TGq6cOfRYab2Gv5-87" target="SzS7_TGq6cOfRYab2Gv5-91">
          <mxGeometry relative="1" as="geometry"/>
        </mxCell>
        <mxCell id="SzS7_TGq6cOfRYab2Gv5-93" value="" style="edgeStyle=orthogonalEdgeStyle;rounded=0;orthogonalLoop=1;jettySize=auto;html=1;entryX=0.5;entryY=0;entryDx=0;entryDy=0;entryPerimeter=0;" edge="1" parent="1" source="SzS7_TGq6cOfRYab2Gv5-91" target="SzS7_TGq6cOfRYab2Gv5-76">
          <mxGeometry relative="1" as="geometry">
            <mxPoint x="565.75" y="520" as="targetPoint"/>
            <Array as="points">
              <mxPoint x="566" y="549"/>
            </Array>
          </mxGeometry>
        </mxCell>
        <mxCell id="SzS7_TGq6cOfRYab2Gv5-98" value="" style="edgeStyle=orthogonalEdgeStyle;rounded=0;orthogonalLoop=1;jettySize=auto;html=1;entryX=0.095;entryY=0.5;entryDx=0;entryDy=0;entryPerimeter=0;" edge="1" parent="1" source="SzS7_TGq6cOfRYab2Gv5-91" target="SzS7_TGq6cOfRYab2Gv5-100">
          <mxGeometry relative="1" as="geometry">
            <mxPoint x="695" y="413" as="targetPoint"/>
          </mxGeometry>
        </mxCell>
        <mxCell id="SzS7_TGq6cOfRYab2Gv5-100" value="TaxFreeForm&lt;br&gt;&lt;font color=&quot;#007fff&quot;&gt;status: actived&lt;br&gt;&lt;/font&gt;&lt;span style=&quot;color: rgb(0 , 204 , 102) ; font-size: 10px&quot;&gt;statusV2: &lt;font face=&quot;menlo&quot;&gt;&lt;span style=&quot;background-color: rgb(255 , 255 , 255)&quot;&gt;&lt;b&gt;&lt;i&gt;blockedReUpload&lt;br&gt;&lt;/i&gt;&lt;/b&gt;&lt;/span&gt;&lt;/font&gt;&lt;/span&gt;&lt;font color=&quot;#007fff&quot;&gt;amount: checked&lt;br&gt;&lt;/font&gt;&lt;span style=&quot;font-family: &amp;#34;menlo&amp;#34; ; font-size: 10px ; background-color: rgb(255 , 255 , 255)&quot;&gt;FormOnlineStatus:online&lt;/span&gt;&lt;font color=&quot;#007fff&quot;&gt;&lt;br&gt;&lt;/font&gt;" style="shape=mxgraph.flowchart.data;strokeWidth=2;gradientColor=none;gradientDirection=north;fontStyle=0;html=1;" vertex="1" parent="1">
          <mxGeometry x="680" y="461" width="184" height="97" as="geometry"/>
        </mxCell>
        <mxCell id="SzS7_TGq6cOfRYab2Gv5-126" value="" style="group" vertex="1" connectable="0" parent="1">
          <mxGeometry x="105" y="271.5" width="136" height="108.5" as="geometry"/>
        </mxCell>
        <mxCell id="6" value="with registered&lt;br&gt;tourist account" style="shape=mxgraph.flowchart.decision;strokeWidth=2;gradientColor=none;gradientDirection=north;fontStyle=0;html=1;" parent="SzS7_TGq6cOfRYab2Gv5-126" vertex="1">
          <mxGeometry width="110" height="100" as="geometry"/>
        </mxCell>
        <mxCell id="SzS7_TGq6cOfRYab2Gv5-116" value="N" style="text;html=1;align=center;verticalAlign=middle;resizable=0;points=[];autosize=1;" vertex="1" parent="SzS7_TGq6cOfRYab2Gv5-126">
          <mxGeometry x="116" y="29.5" width="20" height="20" as="geometry"/>
        </mxCell>
        <mxCell id="SzS7_TGq6cOfRYab2Gv5-117" value="Y" style="text;html=1;align=center;verticalAlign=middle;resizable=0;points=[];autosize=1;" vertex="1" parent="SzS7_TGq6cOfRYab2Gv5-126">
          <mxGeometry x="25" y="88.5" width="20" height="20" as="geometry"/>
        </mxCell>
        <mxCell id="SzS7_TGq6cOfRYab2Gv5-127" value="" style="group" vertex="1" connectable="0" parent="1">
          <mxGeometry x="305" y="271.5" width="115.5" height="100" as="geometry"/>
        </mxCell>
        <mxCell id="SzS7_TGq6cOfRYab2Gv5-105" value="by shangmi" style="shape=mxgraph.flowchart.decision;strokeWidth=2;gradientColor=none;gradientDirection=north;fontStyle=0;html=1;" vertex="1" parent="SzS7_TGq6cOfRYab2Gv5-127">
          <mxGeometry width="110" height="100" as="geometry"/>
        </mxCell>
        <mxCell id="SzS7_TGq6cOfRYab2Gv5-62" value="Y" style="text;html=1;align=center;verticalAlign=middle;resizable=0;points=[];autosize=1;" vertex="1" parent="SzS7_TGq6cOfRYab2Gv5-127">
          <mxGeometry x="20.5" y="80" width="20" height="20" as="geometry"/>
        </mxCell>
        <mxCell id="SzS7_TGq6cOfRYab2Gv5-68" value="N" style="text;html=1;align=center;verticalAlign=middle;resizable=0;points=[];autosize=1;" vertex="1" parent="SzS7_TGq6cOfRYab2Gv5-127">
          <mxGeometry x="95.5" y="13.5" width="20" height="20" as="geometry"/>
        </mxCell>
        <mxCell id="SzS7_TGq6cOfRYab2Gv5-128" value="" style="group" vertex="1" connectable="0" parent="1">
          <mxGeometry x="477.75" y="191.5" width="232.25" height="170" as="geometry"/>
        </mxCell>
        <mxCell id="SzS7_TGq6cOfRYab2Gv5-66" value="TaxFreeForm(Offline)&lt;br&gt;&lt;font color=&quot;#007fff&quot;&gt;status: created&lt;br&gt;&lt;/font&gt;&lt;span style=&quot;font-family: &amp;#34;menlo&amp;#34; ; font-size: 10px ; background-color: rgb(255 , 255 , 255)&quot;&gt;FormOnlineStatus:offline&lt;/span&gt;&lt;font color=&quot;#007fff&quot;&gt;&lt;br&gt;&lt;/font&gt;" style="shape=mxgraph.flowchart.data;strokeWidth=2;gradientColor=none;gradientDirection=north;fontStyle=0;html=1;" vertex="1" parent="SzS7_TGq6cOfRYab2Gv5-128">
          <mxGeometry y="90" width="174.5" height="80" as="geometry"/>
        </mxCell>
        <mxCell id="SzS7_TGq6cOfRYab2Gv5-111" value="&lt;pre style=&quot;background-color: rgb(255 , 255 , 255) ; font-family: &amp;#34;menlo&amp;#34; ; font-size: 12pt&quot;&gt;&lt;span style=&quot;color: #660e7a ; font-weight: bold ; font-style: italic&quot;&gt;batchGenerateTaxForms&lt;/span&gt;&lt;/pre&gt;&lt;pre style=&quot;background-color: rgb(255 , 255 , 255) ; font-family: &amp;#34;menlo&amp;#34; ; font-size: 12pt&quot;&gt;&lt;pre style=&quot;font-family: &amp;#34;menlo&amp;#34; ; font-size: 12pt&quot;&gt;&lt;span style=&quot;color: #660e7a ; font-weight: bold ; font-style: italic&quot;&gt;createEmptyFormByStore&lt;/span&gt;&lt;/pre&gt;&lt;/pre&gt;" style="text;html=1;align=center;verticalAlign=middle;resizable=0;points=[];autosize=1;" vertex="1" parent="SzS7_TGq6cOfRYab2Gv5-128">
          <mxGeometry x="2.25" width="230" height="80" as="geometry"/>
        </mxCell>
        <mxCell id="SzS7_TGq6cOfRYab2Gv5-129" value="" style="group" vertex="1" connectable="0" parent="1">
          <mxGeometry x="272" y="470" width="159" height="128.5" as="geometry"/>
        </mxCell>
        <mxCell id="SzS7_TGq6cOfRYab2Gv5-87" value="TaxFreeForm(offline)&lt;br&gt;&lt;span style=&quot;color: rgb(0 , 127 , 255)&quot;&gt;status: created&lt;br&gt;&lt;/span&gt;&lt;font style=&quot;font-size: 10px&quot; color=&quot;#00cc66&quot;&gt;statusV2:&amp;nbsp;&lt;span style=&quot;font-style: italic ; font-weight: bold ; background-color: rgb(255 , 255 , 255) ; font-family: &amp;#34;menlo&amp;#34;&quot;&gt;rawApproved&lt;/span&gt;&lt;/font&gt;" style="shape=mxgraph.flowchart.data;strokeWidth=2;gradientColor=none;gradientDirection=north;fontStyle=0;html=1;" vertex="1" parent="SzS7_TGq6cOfRYab2Gv5-129">
          <mxGeometry width="159" height="80" as="geometry"/>
        </mxCell>
        <mxCell id="SzS7_TGq6cOfRYab2Gv5-119" value="&lt;pre style=&quot;background-color: rgb(255 , 255 , 255) ; font-family: &amp;#34;menlo&amp;#34; ; font-size: 12pt&quot;&gt;&lt;span style=&quot;color: #660e7a ; font-weight: bold ; font-style: italic&quot;&gt;terminalForms&lt;/span&gt;&lt;/pre&gt;" style="text;html=1;align=center;verticalAlign=middle;resizable=0;points=[];autosize=1;" vertex="1" parent="SzS7_TGq6cOfRYab2Gv5-129">
          <mxGeometry x="3" y="78.5" width="140" height="50" as="geometry"/>
        </mxCell>
        <mxCell id="SzS7_TGq6cOfRYab2Gv5-130" value="" style="group" vertex="1" connectable="0" parent="1">
          <mxGeometry x="-15" y="468.5" width="270" height="131.5" as="geometry"/>
        </mxCell>
        <mxCell id="5" value="TaxFreeForm(Online)&lt;br&gt;&lt;span style=&quot;color: rgb(0 , 127 , 255)&quot;&gt;status: actived&lt;br&gt;&lt;/span&gt;&lt;font style=&quot;font-size: 10px&quot; color=&quot;#00cc66&quot;&gt;statusV2:&amp;nbsp;&lt;span style=&quot;font-style: italic ; font-weight: bold ; background-color: rgb(255 , 255 , 255) ; font-family: &amp;#34;menlo&amp;#34;&quot;&gt;rawApproved&lt;br&gt;&lt;/span&gt;&lt;/font&gt;&lt;span style=&quot;font-size: 10px ; background-color: rgb(255 , 255 , 255) ; font-family: &amp;#34;menlo&amp;#34;&quot;&gt;FormOnlineStatus:online&lt;/span&gt;&lt;font style=&quot;font-size: 10px&quot; color=&quot;#00cc66&quot;&gt;&lt;span style=&quot;font-style: italic ; font-weight: bold ; background-color: rgb(255 , 255 , 255) ; font-family: &amp;#34;menlo&amp;#34;&quot;&gt;&lt;br&gt;&lt;/span&gt;&lt;/font&gt;" style="shape=mxgraph.flowchart.data;strokeWidth=2;gradientColor=none;gradientDirection=north;fontStyle=0;html=1;" parent="SzS7_TGq6cOfRYab2Gv5-130" vertex="1">
          <mxGeometry x="76" width="159" height="80" as="geometry"/>
        </mxCell>
        <mxCell id="SzS7_TGq6cOfRYab2Gv5-112" value="&lt;pre style=&quot;background-color: rgb(255 , 255 , 255) ; font-family: &amp;#34;menlo&amp;#34; ; font-size: 12pt&quot;&gt;&lt;span style=&quot;color: #660e7a ; font-weight: bold ; font-style: italic&quot;&gt;createConfirmedFormByStore&lt;/span&gt;&lt;/pre&gt;" style="text;html=1;align=center;verticalAlign=middle;resizable=0;points=[];autosize=1;" vertex="1" parent="SzS7_TGq6cOfRYab2Gv5-130">
          <mxGeometry y="81.5" width="270" height="50" as="geometry"/>
        </mxCell>
        <mxCell id="SzS7_TGq6cOfRYab2Gv5-131" value="" style="group" vertex="1" connectable="0" parent="1">
          <mxGeometry x="-170" y="470" width="170" height="128.5" as="geometry"/>
        </mxCell>
        <mxCell id="SzS7_TGq6cOfRYab2Gv5-121" value="TaxFreeForm(Online)&lt;br&gt;&lt;span style=&quot;color: rgb(0 , 127 , 255)&quot;&gt;status: actived&lt;br&gt;&lt;/span&gt;&lt;font style=&quot;font-size: 10px&quot; color=&quot;#00cc66&quot;&gt;statusV2:&amp;nbsp;&lt;span style=&quot;font-style: italic ; font-weight: bold ; background-color: rgb(255 , 255 , 255) ; font-family: &amp;#34;menlo&amp;#34;&quot;&gt;rawVerifying&lt;br&gt;&lt;/span&gt;&lt;/font&gt;&lt;span style=&quot;font-size: 10px ; background-color: rgb(255 , 255 , 255) ; font-family: &amp;#34;menlo&amp;#34;&quot;&gt;FormOnlineStatus:online&lt;/span&gt;&lt;font style=&quot;font-size: 10px&quot; color=&quot;#00cc66&quot;&gt;&lt;span style=&quot;font-style: italic ; font-weight: bold ; background-color: rgb(255 , 255 , 255) ; font-family: &amp;#34;menlo&amp;#34;&quot;&gt;&lt;br&gt;&lt;/span&gt;&lt;/font&gt;" style="shape=mxgraph.flowchart.data;strokeWidth=2;gradientColor=none;gradientDirection=north;fontStyle=0;html=1;" vertex="1" parent="SzS7_TGq6cOfRYab2Gv5-131">
          <mxGeometry x="11" width="159" height="80" as="geometry"/>
        </mxCell>
        <mxCell id="SzS7_TGq6cOfRYab2Gv5-122" value="&lt;pre style=&quot;background-color: rgb(255 , 255 , 255) ; font-family: &amp;#34;menlo&amp;#34; ; font-size: 12pt&quot;&gt;&lt;span style=&quot;color: #660e7a ; font-weight: bold ; font-style: italic&quot;&gt;createDivaForm&lt;/span&gt;&lt;/pre&gt;" style="text;html=1;align=center;verticalAlign=middle;resizable=0;points=[];autosize=1;" vertex="1" parent="SzS7_TGq6cOfRYab2Gv5-131">
          <mxGeometry y="78.5" width="150" height="50" as="geometry"/>
        </mxCell>
        <mxCell id="SzS7_TGq6cOfRYab2Gv5-132" value="" style="group" vertex="1" connectable="0" parent="1">
          <mxGeometry x="511.01" y="460" width="123.99000000000001" height="100" as="geometry"/>
        </mxCell>
        <mxCell id="SzS7_TGq6cOfRYab2Gv5-91" value="do active and&lt;br&gt;&amp;nbsp;if&amp;nbsp;&lt;span style=&quot;color: rgb(0 , 204 , 102) ; font-size: 10px&quot;&gt;statusV2:&amp;nbsp;&lt;/span&gt;&lt;span style=&quot;color: rgb(0 , 204 , 102) ; font-size: 10px ; font-style: italic ; font-weight: bold ; background-color: rgb(255 , 255 , 255) ; font-family: &amp;#34;menlo&amp;#34;&quot;&gt;rawApproved&lt;/span&gt;" style="shape=mxgraph.flowchart.decision;strokeWidth=2;gradientColor=none;gradientDirection=north;fontStyle=0;html=1;" vertex="1" parent="SzS7_TGq6cOfRYab2Gv5-132">
          <mxGeometry width="110" height="100" as="geometry"/>
        </mxCell>
        <mxCell id="SzS7_TGq6cOfRYab2Gv5-96" value="N" style="text;html=1;align=center;verticalAlign=middle;resizable=0;points=[];autosize=1;" vertex="1" parent="SzS7_TGq6cOfRYab2Gv5-132">
          <mxGeometry x="18.99000000000001" y="80" width="20" height="20" as="geometry"/>
        </mxCell>
        <mxCell id="SzS7_TGq6cOfRYab2Gv5-99" value="Y" style="text;html=1;align=center;verticalAlign=middle;resizable=0;points=[];autosize=1;" vertex="1" parent="SzS7_TGq6cOfRYab2Gv5-132">
          <mxGeometry x="103.99000000000001" y="20" width="20" height="20" as="geometry"/>
        </mxCell>
        <mxCell id="SzS7_TGq6cOfRYab2Gv5-133" value="" style="group" vertex="1" connectable="0" parent="1">
          <mxGeometry x="890" y="50" width="260" height="510" as="geometry"/>
        </mxCell>
        <mxCell id="SzS7_TGq6cOfRYab2Gv5-72" value="&lt;pre style=&quot;background-color: rgb(255 , 255 , 255) ; font-family: &amp;#34;menlo&amp;#34; ; font-size: 12pt&quot;&gt;&lt;b&gt;AmountState&lt;/b&gt;:&lt;/pre&gt;&lt;pre style=&quot;text-align: justify ; background-color: rgb(255 , 255 , 255)&quot;&gt;&lt;font face=&quot;Menlo&quot;&gt;&lt;span style=&quot;font-size: 15px&quot;&gt;unchecked/checked&lt;/span&gt;&lt;/font&gt;&lt;span style=&quot;font-size: 15px&quot;&gt;&lt;br&gt;&lt;/span&gt;&lt;/pre&gt;" style="text;html=1;strokeColor=none;fillColor=none;align=center;verticalAlign=middle;whiteSpace=wrap;rounded=0;" vertex="1" parent="SzS7_TGq6cOfRYab2Gv5-133">
          <mxGeometry y="360" width="230" height="60" as="geometry"/>
        </mxCell>
        <mxCell id="SzS7_TGq6cOfRYab2Gv5-73" value="&lt;pre style=&quot;background-color: rgb(255 , 255 , 255)&quot;&gt;&lt;div style=&quot;text-align: left&quot;&gt;&lt;span style=&quot;font-size: 16px ; font-family: &amp;#34;menlo&amp;#34; ; white-space: normal&quot;&gt;&lt;b&gt;statusV2:&lt;/b&gt;&lt;/span&gt;&lt;/div&gt;&lt;div style=&quot;text-align: left&quot;&gt;&lt;span style=&quot;font-size: 16px ; white-space: normal ; font-family: &amp;#34;menlo&amp;#34;&quot;&gt;rawVerifying,&lt;/span&gt;&lt;/div&gt;&lt;div style=&quot;text-align: left&quot;&gt;&lt;span style=&quot;white-space: normal ; font-size: 16px ; font-family: &amp;#34;menlo&amp;#34;&quot;&gt;rawApproved,&lt;/span&gt;&lt;/div&gt;&lt;font face=&quot;menlo&quot;&gt;&lt;span style=&quot;font-size: 16px&quot;&gt;&lt;div style=&quot;text-align: left&quot;&gt;&lt;span style=&quot;white-space: normal&quot;&gt;handling,&lt;/span&gt;&lt;/div&gt;&lt;div style=&quot;text-align: left&quot;&gt;&lt;span style=&quot;white-space: normal&quot;&gt;complete,&lt;/span&gt;&lt;/div&gt;&lt;div style=&quot;text-align: left&quot;&gt;&lt;span style=&quot;white-space: normal&quot;&gt;blockedReUpload,&lt;/span&gt;&lt;/div&gt;&lt;div style=&quot;text-align: left&quot;&gt;&lt;span style=&quot;white-space: normal&quot;&gt;blockedViewDetails&lt;/span&gt;&lt;/div&gt;&lt;/span&gt;&lt;/font&gt;&lt;/pre&gt;" style="text;html=1;strokeColor=none;fillColor=none;align=center;verticalAlign=middle;whiteSpace=wrap;rounded=0;" vertex="1" parent="SzS7_TGq6cOfRYab2Gv5-133">
          <mxGeometry y="150" width="260" height="190" as="geometry"/>
        </mxCell>
        <mxCell id="SzS7_TGq6cOfRYab2Gv5-74" value="&lt;pre style=&quot;background-color: rgb(255 , 255 , 255)&quot;&gt;&lt;div style=&quot;text-align: left&quot;&gt;&lt;font face=&quot;menlo&quot;&gt;&lt;span style=&quot;font-size: 16px ; white-space: normal&quot;&gt;&lt;b&gt;status:&lt;/b&gt;&lt;/span&gt;&lt;/font&gt;&lt;/div&gt;&lt;div style=&quot;text-align: left&quot;&gt;&lt;font face=&quot;menlo&quot;&gt;&lt;span style=&quot;font-size: 16px ; white-space: normal&quot;&gt;created,&lt;/span&gt;&lt;/font&gt;&lt;/div&gt;&lt;div style=&quot;text-align: left&quot;&gt;&lt;font face=&quot;menlo&quot;&gt;&lt;span style=&quot;font-size: 16px ; white-space: normal&quot;&gt;active,&lt;/span&gt;&lt;/font&gt;&lt;/div&gt;&lt;div style=&quot;text-align: left&quot;&gt;&lt;font face=&quot;menlo&quot;&gt;&lt;span style=&quot;font-size: 16px ; white-space: normal&quot;&gt;filled,&lt;/span&gt;&lt;/font&gt;&lt;/div&gt;&lt;div style=&quot;text-align: left&quot;&gt;&lt;font face=&quot;menlo&quot;&gt;&lt;span style=&quot;font-size: 16px ; white-space: normal&quot;&gt;stamped,&lt;/span&gt;&lt;/font&gt;&lt;/div&gt;&lt;div style=&quot;text-align: left&quot;&gt;&lt;font face=&quot;menlo&quot;&gt;&lt;span style=&quot;font-size: 16px ; white-space: normal&quot;&gt;submitted,&lt;/span&gt;&lt;/font&gt;&lt;/div&gt;&lt;div style=&quot;text-align: left&quot;&gt;&lt;font face=&quot;menlo&quot;&gt;&lt;span style=&quot;font-size: 16px ; white-space: normal&quot;&gt;finished&lt;/span&gt;&lt;/font&gt;&lt;br&gt;&lt;/div&gt;&lt;/pre&gt;" style="text;html=1;strokeColor=none;fillColor=none;align=center;verticalAlign=middle;whiteSpace=wrap;rounded=0;" vertex="1" parent="SzS7_TGq6cOfRYab2Gv5-133">
          <mxGeometry width="180" height="130" as="geometry"/>
        </mxCell>
        <mxCell id="SzS7_TGq6cOfRYab2Gv5-88" value="&lt;pre style=&quot;background-color: rgb(255 , 255 , 255) ; font-family: &amp;#34;menlo&amp;#34; ; font-size: 12pt&quot;&gt;&lt;span style=&quot;font-family: &amp;#34;menlo&amp;#34; ; font-size: 12pt ; white-space: normal&quot;&gt;&lt;b&gt;FormOnlineStatus&lt;/b&gt;&lt;/span&gt;:&lt;/pre&gt;&lt;pre style=&quot;text-align: justify ; background-color: rgb(255 , 255 , 255)&quot;&gt;&lt;font face=&quot;Menlo&quot;&gt;&lt;span style=&quot;font-size: 15px&quot;&gt;offline/online&lt;/span&gt;&lt;/font&gt;&lt;span style=&quot;font-size: 15px&quot;&gt;&lt;br&gt;&lt;/span&gt;&lt;/pre&gt;" style="text;html=1;strokeColor=none;fillColor=none;align=center;verticalAlign=middle;whiteSpace=wrap;rounded=0;" vertex="1" parent="SzS7_TGq6cOfRYab2Gv5-133">
          <mxGeometry x="10" y="450" width="230" height="60" as="geometry"/>
        </mxCell>
      </root>
    </mxGraphModel>
  </diagram>
</mxfile>
